<svg width="48" height="48" viewBox="0 0 48 48" fill="none" xmlns="http://www.w3.org/2000/svg">
<g opacity="0.9" clip-path="url(#clip0_1947_8174)">
<path d="M22.9451 0.313158C24.4811 0.381291 25.4606 0.00316897 26.6616 1.09826C27.4968 1.85974 28.2779 2.66457 29.0906 3.43005C30.0074 4.27796 30.9125 5.13762 31.8054 6.00873C32.3904 6.57579 33.1125 7.2101 33.5438 7.88313C33.6537 8.05461 33.7321 8.6472 33.7253 8.88236C33.6907 10.051 33.8306 11.4091 33.6407 12.5534C33.5628 13.0226 32.2709 14.1652 31.8756 14.5391C31.1752 15.1897 30.491 15.8562 29.8235 16.538C29.7638 14.9624 29.8525 13.3468 29.8259 11.7674C29.8059 10.5755 29.9174 9.348 29.5013 8.20403C28.9088 6.5755 27.5015 5.14374 25.8352 4.49831C25.1825 4.24535 24.5514 4.15362 23.8632 4.0616C23.7053 4.05472 23.5473 4.05135 23.3892 4.0515C21.5299 4.06786 19.865 4.71025 18.5787 5.99673C16.6385 7.93726 16.7775 10.0767 16.7902 12.5533L16.8353 16.4659C16.6632 16.3316 16.3784 16.0818 16.2092 15.912C15.2038 14.9007 13.883 13.9512 13.1119 12.7702C12.9028 12.4498 12.9102 11.0644 12.9238 10.6596C12.9547 9.74094 12.8197 8.70087 13.1351 7.82371C13.3116 7.53588 13.6016 7.18672 13.8414 6.9569C15.4846 5.38179 17.1402 3.81951 18.7741 2.23617C19.3309 1.69656 19.9961 0.98951 20.6601 0.604091C21.2069 0.286689 22.3025 0.321679 22.9451 0.313158Z" fill="#F0596F"/>
<path d="M16.7115 31.3704C16.7675 31.4094 16.811 31.4671 16.8121 31.5351C16.8454 33.6368 16.7198 35.7462 16.8292 37.8469C16.8509 38.2638 16.9704 38.8084 17.0959 39.2086C17.9057 41.7921 20.5274 43.5599 23.3066 43.5892C25.0396 43.5967 26.7038 42.9379 27.9288 41.7594C30.229 39.5763 29.8925 37.4394 29.8416 34.5797C29.8153 33.4854 29.8087 32.3908 29.822 31.2964C30.0966 31.5034 30.7183 32.1164 30.982 32.3959C31.6102 33.0618 33.5637 34.5108 33.6954 35.4114C33.8098 36.1936 33.7605 37.4939 33.7642 38.3008C33.6914 39.2406 33.8074 39.5864 33.0893 40.3759C32.7267 40.7746 32.3573 41.08 31.9692 41.4466L29.8329 43.4767L27.8992 45.323C27.2142 45.9863 26.2204 47.1603 25.1992 47.0688C23.9221 46.9546 21.1155 47.4627 20.168 46.6087C18.9128 45.477 17.7319 44.3353 16.5259 43.1713C15.3835 42.0685 14.1545 41.0602 13.1657 39.8401C12.8128 39.3877 12.838 35.503 13.1245 35.0113C13.8805 33.7138 15.6574 32.509 16.7115 31.3704Z" fill="#F0596F"/>
<path d="M38.6185 13.9612C39.4083 13.9864 39.8111 14.0121 40.4242 14.5409C41.1258 15.1459 41.7594 15.8069 42.4329 16.4403L45.4414 19.3096C46.1361 19.9786 47.4728 21.0167 47.5264 21.974C47.5907 23.1182 47.6888 25.0884 47.4818 26.1786C47.343 26.9067 45.4602 28.4886 44.832 29.0938L42.1776 31.6488C41.5852 32.2224 40.0734 33.893 39.2207 33.919C37.9176 33.9587 36.4217 34.0461 35.1243 33.8776C34.9132 33.8502 34.4594 33.5562 34.2729 33.4127C33.7597 32.9112 31.3417 30.745 31.0605 30.2853C31.587 30.256 32.3124 30.2811 32.8534 30.2847C34.0115 30.2944 35.1697 30.2956 36.3278 30.2879C36.9965 30.2785 37.725 30.2798 38.3834 30.1739C40.6293 29.8127 42.4582 28.3667 43.3452 26.3697C44.9254 22.8134 42.7432 18.5612 38.7707 17.763C37.8763 17.5833 36.676 17.6259 35.7506 17.626L32.9459 17.6252C32.5816 17.6283 31.3409 17.6819 31.0667 17.5764C31.0737 17.4672 31.8137 16.7588 31.9616 16.611C35.1862 13.3888 34.4868 14.0174 38.6185 13.9612Z" fill="#F0596F"/>
<path d="M22.7372 5.89519C22.9366 5.87897 23.1744 5.86258 23.3729 5.86076C24.5979 5.84475 25.7788 6.29963 26.6532 7.12436C28.3096 8.71059 28.0377 10.7528 28.0394 12.7951L28.0463 17.8085C27.5027 17.4072 26.9005 16.7447 26.4005 16.2647C25.6295 15.5246 24.4645 14.6686 24.3268 13.5764C24.1303 12.0187 24.4094 10.3975 24.1281 8.84508C23.9905 8.76431 23.8319 8.69942 23.6843 8.63442C23.5778 8.59428 23.3754 8.5534 23.2557 8.52588C23.0942 8.57839 22.881 8.61426 22.736 8.69777C22.028 9.10531 22.5636 12.8803 22.2055 13.9459C22.0981 14.2655 21.9311 14.5518 21.7165 14.8157C21.4998 15.0823 18.8631 17.6456 18.718 17.7159C18.6416 17.6299 18.6239 17.525 18.6232 17.4135C18.6135 15.826 18.6045 14.1976 18.6373 12.6122C18.6543 11.7856 18.5509 10.1794 18.7119 9.44628C18.8841 8.64108 19.2744 7.89385 19.8435 7.28019C20.5432 6.53305 21.6954 5.94733 22.7372 5.89519Z" fill="#F0596F"/>
<path d="M27.9456 29.936L27.9896 29.9607C28.0752 30.0644 28.0549 30.4487 28.0552 30.5992L28.0526 35.0086C28.0539 36.526 28.2247 37.8698 27.5575 39.2849C26.2578 42.0416 22.226 42.6039 20.0431 40.5115C18.5542 39.0842 18.6015 37.7533 18.5913 35.8834C18.5886 34.9113 18.5917 33.9393 18.6006 32.9672C18.6142 32.067 18.5736 30.8123 18.651 29.9575C19.5555 30.9137 21.8114 32.5674 22.1995 33.7295C22.4212 34.393 22.3876 35.1689 22.3855 35.8587C22.3828 36.7917 22.2756 37.817 22.5049 38.7255C23.2056 39.2362 23.4661 39.287 24.1344 38.7454C24.6554 37.2288 23.7276 34.3766 24.8125 33.0269C25.649 31.9862 27.0162 31.005 27.9158 29.9706L27.9456 29.936Z" fill="#F0596F"/>
<path d="M29.8272 19.4042C30.1469 19.3987 30.4667 19.3949 30.7864 19.3927L34.6504 19.389C36.7631 19.3864 38.976 19.1241 40.6126 20.6695C42.4694 22.4228 42.4637 25.4014 40.634 27.1654C39.1789 28.5683 37.5278 28.4758 35.6196 28.4751L32.6224 28.4711C31.6632 28.4676 30.5954 28.4426 29.6453 28.4872C30.4032 27.7023 32.4237 25.5841 33.3127 25.1366C34.641 24.4679 38.0957 25.3627 38.9347 24.5711C39.1124 24.4034 39.1715 24.1987 39.1713 23.9642C39.1711 23.5627 39.0075 23.3541 38.7276 23.0814C37.4285 22.8789 33.9322 23.2759 33.0479 22.5878C32.4747 22.1418 30.2083 20.0707 29.8068 19.4946L29.8272 19.4042Z" fill="#F0596F"/>
<path d="M14.7332 19.4604L17.5221 19.437C16.8451 20.1767 14.423 22.6655 13.5543 22.9356C12.9429 23.1257 12.1385 23.0433 11.5041 23.0391C10.7048 23.0339 9.72034 22.9675 8.9463 23.0413C8.63447 23.071 8.42978 23.164 8.23273 23.3988C8.06755 23.5958 7.96127 23.8256 7.99577 24.0826C8.0448 24.4475 8.31621 24.7425 8.6697 24.8695C9.0546 25.0077 9.52611 24.971 9.93184 24.9686C10.8624 24.9633 12.7049 24.8343 13.5493 25.0631C13.8732 25.1509 14.1544 25.3346 14.4168 25.532C14.6937 25.7403 17.3846 28.3229 17.4186 28.411C17.4283 28.4363 17.4255 28.4647 17.4289 28.4915C17.3498 28.5125 17.281 28.5216 17.1984 28.5229C15.3131 28.5518 13.4261 28.534 11.5403 28.549C10.6125 28.5564 9.68743 28.5923 8.7765 28.3883C8.02658 28.2278 7.33315 27.8822 6.76457 27.3855C5.8332 26.5919 5.27965 25.4668 5.23234 24.2711C5.17003 22.9941 5.52025 21.8493 6.42891 20.8889C8.03048 19.1962 10.2561 19.4838 12.3993 19.4772C13.1618 19.4749 13.9612 19.4897 14.7332 19.4604Z" fill="#F0596F"/>
<path d="M0 21.3466C0.0445839 21.213 0.102667 21.0359 0.199589 20.9327C1.05037 20.0271 1.98521 19.147 2.87974 18.2834L4.79319 16.4624C5.22013 16.0498 6.98409 14.3103 7.41009 14.1909C8.12229 13.9911 11.6149 13.9118 12.2277 14.1331C13.3016 14.5207 15.3842 16.9066 16.2868 17.7167C14.8905 17.6429 13.4524 17.6715 12.0525 17.6681C11.0797 17.6967 10.029 17.632 9.06394 17.7355C7.6815 17.8839 6.37603 18.4961 5.3751 19.4136C2.83122 21.7453 2.66052 25.7098 5.02136 28.2181C6.20207 29.483 7.863 30.2374 9.62927 30.3111C11.2917 30.3871 13.0771 30.3037 14.749 30.3307C15.2115 30.3382 15.8362 30.2869 16.2631 30.3032C15.1754 31.2955 14.1501 32.3695 13.0707 33.3707C12.8581 33.5304 12.3923 33.8792 12.1411 33.917C11.0204 34.0854 9.80426 33.9937 8.67647 34.013C7.51577 34.0328 7.13987 33.6931 6.34196 32.9284C4.37374 31.042 2.39265 29.1318 0.427381 27.2388C0.246903 27.0649 0.118787 26.9038 0 26.6858V21.3466Z" fill="#F0596F"/>
</g>
<defs>
<clipPath id="clip0_1947_8174">
<rect width="48" height="48" fill="white"/>
</clipPath>
</defs>
</svg>
