<svg preserveAspectRatio="none" overflow="visible" style="display: block;" width="14" height="14" viewBox="0 0 14 14" fill="none" xmlns="http://www.w3.org/2000/svg">
<g id="Linear / Map &#38; Location / Map Point">
<path id="Union" d="M7 0.416992C10.0038 0.417171 12.4159 2.89212 12.416 5.91699C12.416 7.35235 12.008 8.88497 11.29 10.207C10.5735 11.5263 9.51584 12.6945 8.1709 13.3232C7.4281 13.6703 6.57189 13.6703 5.8291 13.3232C4.48404 12.6945 3.42556 11.5264 2.70898 10.207C1.99104 8.885 1.58307 7.3523 1.58301 5.91699C1.58314 2.89212 3.9962 0.417171 7 0.416992ZM7 1.91699C4.84961 1.91717 3.08314 3.69534 3.08301 5.91699C3.08307 7.08433 3.41981 8.37254 4.02734 9.49121C4.63635 10.6125 5.48536 11.5064 6.46387 11.9639C6.80416 12.1229 7.19481 12.1228 7.53516 11.9639C8.5137 11.5065 9.36262 10.6125 9.97168 9.49121C10.5792 8.37252 10.916 7.08436 10.916 5.91699C10.9159 3.69534 9.15039 1.91717 7 1.91699ZM7 3.33301C8.3806 3.33301 9.49982 4.45245 9.5 5.83301C9.5 7.21372 8.38071 8.33301 7 8.33301C5.61929 8.33301 4.5 7.21372 4.5 5.83301C4.50018 4.45245 5.6194 3.33301 7 3.33301ZM7 4.83301C6.44782 4.83301 6.00018 5.28087 6 5.83301C6 6.38529 6.44772 6.83301 7 6.83301C7.55228 6.83301 8 6.38529 8 5.83301C7.99982 5.28087 7.55218 4.83301 7 4.83301Z" fill="#BB4D00"/>
</g>
</svg>
